<?xml version="1.0" encoding="utf-8"?>
<!-- Generator: Adobe Illustrator 23.0.1, SVG Export Plug-In . SVG Version: 6.00 Build 0)  -->
<svg version="1.0" id="Layer_1" xmlns="http://www.w3.org/2000/svg" xmlns:xlink="http://www.w3.org/1999/xlink" x="0px" y="0px"
	 viewBox="0 0 1920 693.56" enable-background="new 0 0 1920 693.56" xml:space="preserve">
<g>
	<path fill="#FFFFFF" d="M886.05,319.93c3.63-4.15,6.81-8.87,9.54-14.12c2.73-5.33,4.93-10.95,6.52-16.74
		c1.63-5.82,2.45-11.86,2.45-17.89c0-11.04-2.25-21.46-6.73-31.23c-4.49-9.76-10.28-18.38-17.37-25.77
		c-7.09-7.38-15.09-13.21-23.93-17.48c-8.84-4.27-17.77-6.4-26.74-6.4h-42.23c-8.73,0-15.94,2.79-21.69,8.29s-8.6,12.51-8.6,21.05
		v181.71c0,8.49,2.77,15.55,8.23,21.05c5.46,5.54,12.43,8.29,20.91,8.29c8.73,0,15.94-2.79,21.69-8.29s8.6-12.51,8.6-21.05v-48.18
		h8.97l36.65,63.98c2.73,4.27,6.15,7.51,10.27,9.77c4.04,2.26,8.6,3.45,13.25,3.41c6.24,0,11.87-1.72,16.84-5.25
		c4.48-3,7.87-6.65,10.11-10.92c2.25-4.18,3.39-8.82,3.34-13.51c0-5.75-1.5-11.29-4.48-16.54l-37.38-54.58
		C878.51,327.28,882.42,324.07,886.05,319.93z M842.72,284.32c-1.63,2.99-3.42,5.13-5.42,6.4c-2.2,1.48-4.77,2.42-7.46,2.63h-13.09
		v-43.26h13.09c2.65,0.21,5.22,1.11,7.46,2.63c2,1.27,3.79,3.36,5.42,6.2c1.63,2.87,2.45,6.98,2.45,12.23
		C845.17,276.93,844.35,281.33,842.72,284.32z"/>
	<path fill="#FFFFFF" d="M566.01,528c-1.75,1.56-3.91,2.3-6.52,2.3c-4.98,0-9.34-3.53-13.17-10.59l-12.68,7.72
		c2.97,5.95,6.56,10.34,10.76,13.13s9.09,4.19,14.76,4.19c7.26,0,13.13-2.13,17.61-6.4c4.53-4.27,6.77-9.69,6.75-16.21
		c0-3.37-0.66-6.49-1.92-9.32c-1.3-2.88-3.46-5.83-6.52-8.95c-1.23-1.23-4.73-4.31-10.48-9.15c-6.16-5.25-9.87-8.66-11.09-10.26
		c-0.9-1.23-1.35-2.47-1.35-3.82c0-1.35,0.62-2.54,1.88-3.61c1.26-1.07,2.85-1.6,4.85-1.6c4.07,0,8.07,2.75,11.98,8.25l11.17-9.93
		c-4.16-4.89-8.03-8.25-11.62-10.1c-3.46-1.81-7.34-2.75-11.29-2.75c-6.15,0-11.33,1.97-15.53,5.95c-4.2,3.94-6.28,8.7-6.28,14.24
		c0,3.81,1.26,7.67,3.79,11.53c2.52,3.86,8.11,9.32,16.75,16.42c4.52,3.73,7.45,6.48,8.8,8.29s2,3.61,2,5.42
		C568.66,524.72,567.76,526.48,566.01,528z"/>
	<path fill="#FFFFFF" d="M1411.92,190.46c-31.07,0-59.32,12.11-80.35,31.85h-66.45c-21.08-19.78-49.29-31.85-80.35-31.85
		c-65.1,0-117.89,53.15-117.89,118.68s52.79,118.68,117.89,118.68c25.89,0,49.82-8.41,69.26-22.65c8.96-6.57,9.66-20.44,2.85-29.26
		c-6.03-7.79-16.71-6.97-25.76-0.53c-13.57,9.69-29.76,14.86-46.39,14.82c-44.47,0-80.51-36.28-80.51-81.05s36.04-81.05,80.51-81.05
		c26.05,0,49.24,12.48,63.96,31.85h99.18c14.72-19.37,37.87-31.85,63.96-31.85c44.47,0,80.51,36.28,80.51,81.05
		s-36.04,81.05-80.51,81.05c-17.08,0-33.75-5.46-47.53-15.64c-8.93-6.57-20.22-6.77-27.11,2.01c-6.12,7.76-4.98,20.81,3.91,27.54
		c19.73,14.9,44.19,23.72,70.73,23.72c65.1,0,117.89-53.14,117.98-118.69C1529.81,243.61,1477.02,190.46,1411.92,190.46z"/>
	<polygon fill="#FFFFFF" points="1536.57,542.74 1536.57,490.37 1570.45,542.74 1584.96,542.74 1584.96,542.74 1585,542.74 
		1585,462.92 1569.88,462.92 1569.88,515.45 1535.96,462.92 1521.49,462.92 1521.49,542.74 	"/>
	<path fill="#FFFFFF" d="M1368.78,466.53c-6.4,3.74-11.45,8.83-15.12,15.23c-3.67,6.4-5.5,13.42-5.5,21.05
		c0,11.37,3.95,21.22,11.82,29.51c7.87,8.28,17.78,12.43,29.68,12.43c11.33,0,21.03-4.03,28.98-12.11
		c7.99-8.04,11.94-17.89,11.94-29.54c0-11.78-4.04-21.75-12.11-29.92s-17.73-12.27-28.94-12.27
		C1382.11,460.91,1375.22,462.8,1368.78,466.53z M1415.54,503.02c0,7.64-2.53,14.04-7.58,19.25c-5.05,5.21-11.13,7.8-18.3,7.8
		c-6.32,0-11.95-2.01-16.84-6.03c-6.32-5.13-9.46-12.11-9.46-20.93c0-7.92,2.49-14.45,7.5-19.58c4.98-5.13,11.17-7.72,18.51-7.72
		c7.3,0,13.45,2.62,18.55,7.92C1413.01,488.98,1415.54,495.43,1415.54,503.02z"/>
	<path fill="#FFFFFF" d="M691.97,466.53c-6.4,3.74-11.45,8.83-15.12,15.23c-3.67,6.4-5.5,13.42-5.5,21.05
		c0,11.37,3.95,21.22,11.82,29.51c7.87,8.28,17.78,12.43,29.68,12.43c11.33,0,21.03-4.03,28.98-12.11
		c7.99-8.04,11.98-17.89,11.94-29.54c0-11.78-4.04-21.75-12.11-29.92s-17.73-12.27-28.94-12.27
		C705.3,460.91,698.37,462.8,691.97,466.53z M738.73,503.02c0,7.64-2.49,14.04-7.54,19.25c-5.05,5.21-11.13,7.8-18.3,7.8
		c-6.32,0-11.95-2.01-16.84-6.03c-6.32-5.13-9.46-12.11-9.46-20.93c0-7.92,2.49-14.45,7.5-19.58c5.02-5.13,11.17-7.72,18.51-7.72
		c7.26,0,13.41,2.62,18.51,7.92C736.2,488.98,738.73,495.43,738.73,503.02z"/>
	<path fill="#FFFFFF" d="M326.85,377.22c-51.61-33.81-98.94-81.46-98.94-81.46c-24.37,54.26-32.24,108.92-32.24,108.92
		c18.01,14.36,36.81,23.88,56.25,29.67c14.03-7.22,46.64-12.31,84.63-12.31c41.18,0,76.03,5.95,87.77,14.16
		c32.53-7.75,53.11-17.81,53.1-17.86l-4.32-21.79C317.55,340,216.45,213.76,216.45,213.76C269.49,328.06,430.1,406.4,430.1,406.4
		c-110.71,29.63-210.79-15.35-210.79-15.35c4.32-36.61,17.94-63.12,17.94-63.12C282.42,357.19,326.85,377.22,326.85,377.22z"/>
	<path fill="#FFFFFF" d="M1468.9,310.66c0-12.81-10.31-23.19-22.99-23.19c-12.72,0-22.99,10.39-22.99,23.19
		c0,12.81,10.27,23.19,22.99,23.19C1458.63,333.85,1468.9,323.46,1468.9,310.66z M1436.7,310.67c0-5.13,4.12-9.23,9.21-9.23
		s9.17,4.14,9.17,9.27c0,5.08-4.11,9.23-9.21,9.23C1440.82,319.94,1436.7,315.8,1436.7,310.67z"/>
	<path fill="#FFFFFF" d="M468.14,365.58c0,0-22.95-134.69-129.06-221.41c0,0-53.08,46.78-78.84,89.72l15.78,16.13
		c0,0,20.1-43.34,61.68-76.58c0,0,67.38,57.82,96.77,152.91c0,0-44.48-5.05-99.67-42.23C334.8,284.12,371.37,325.28,468.14,365.58z"
		/>
	<path fill="#FFFFFF" d="M357.46,447.61l1.92,5.7c33.34-1.56,57.68-6.57,57.68-12.48c0-7.18-36.04-13.01-80.51-13.01
		c-44.47,0-80.51,5.83-80.51,13.01c0,5.91,24.33,10.88,57.68,12.48l1.92-5.7c-23.24-1.02-41.95-3.65-41.95-6.77
		c0-3.98,31.1-7.22,62.86-7.22s62.86,3.24,62.86,7.22C399.41,443.96,380.7,446.58,357.46,447.61z"/>
	<path fill="#FFFFFF" d="M247.64,511.64c-12.11,0-18.43,4.19-21.69,9.11c-3.67,5.58,0.37,11.2,0.37,11.2
		c0,6.4,49.37,17.44,110.23,17.44c60.86,0,110.23-11.04,110.23-17.44c0,0,4.03-5.63,0.4-11.2c-3.26-4.88-9.58-9.11-21.69-9.11
		c-21.61,0-24.87,11.61-24.87,11.61c0-13.34,21.32-17.44,21.32-17.44c0-19.29-24.91-8.74-24.91-8.74
		c-11.61-25.77-28.45-8.7-28.45-8.7l-19.36-44.53c-3.05-5.91-22.21-5.91-25.27,0l-19.36,44.53c0,0-16.87-17.07-28.45,8.7
		c0,0-24.91-10.55-24.91,8.74c0,0,21.32,4.1,21.32,17.44C272.55,523.25,269.29,511.64,247.64,511.64z M315.23,499.98l14.23-40.71
		l7.09,33.9l7.09-33.9l14.23,40.71c35.75,0,32,8.74,32,8.7c-22.5-7.92-32,2.91-32,2.91c12.72,0,14.23,11.61,14.23,11.61
		c-14.11-4.8-29.8-5.71-35.55-5.83c-5.75,0.13-21.45,1.03-35.55,5.83c0,0,1.51-11.61,14.23-11.61c0,0-9.5-10.87-32-2.91
		C283.23,508.68,279.48,499.98,315.23,499.98z"/>
	<path fill="#FFFFFF" d="M667.49,207.62c-2.77-6.28-6.56-10.75-11.41-13.38s-10.39-3.94-16.63-3.94
		c-5.75,0.24-11.29,1.88-16.63,4.88c-5.38,3.03-9.17,7.3-11.41,12.8l-74.39,181.35c-1.75,3.73-2.61,7.75-2.61,12.02
		c0,5.79,1.59,11,4.69,15.64c3.1,4.64,7.5,8.21,13.25,10.71c4.73,2.02,9.1,3,13.09,3c5.71,0,10.88-1.51,15.49-4.51
		c4.61-2.99,8.15-7.38,10.64-13.17l16.8-40.54h0v-0.09h0.04l-0.04,0.09h61.68l16.84,40.63c2.24,5.78,5.79,10.17,10.64,13.17
		c4.89,2.99,10.15,4.51,15.9,4.51c4.73,0,8.97-0.87,12.72-2.63c5.71-2.5,10.15-6.07,13.25-10.71c3.14-4.68,4.69-9.85,4.69-15.64
		c0-4.51-0.86-8.65-2.61-12.43L667.49,207.62z M629.69,321.21l9.74-27.82l10.07,27.82H629.69z"/>
	<path fill="#FFFFFF" d="M1695.19,191.04c-8.73,0-15.98,2.79-21.69,8.29c-5.75,5.5-8.6,12.51-8.6,21.05v77.89l-58.7-92.58
		c-2.4-4.43-5.95-8.12-10.27-10.71c-4.4-2.63-9.45-3.94-15.16-3.94c-8.73,0-15.98,2.79-21.69,8.29c-5.75,5.5-8.6,12.51-8.6,21.05
		v180.97c0,8.49,2.73,15.55,8.23,21.05c5.5,5.54,12.47,8.29,20.95,8.29c8.73,0,15.98-2.79,21.69-8.29c5.75-5.5,8.6-12.51,8.6-21.05
		v-78.26l60.53,96.32c5.5,7.51,13.33,11.29,23.56,11.29c8.73,0,15.94-2.79,21.69-8.29s8.6-12.51,8.6-21.05h0.04V220.38
		c0-8.49-2.77-15.51-8.23-21.05C1710.64,193.79,1703.67,191.04,1695.19,191.04z"/>
	<path fill="#FFFFFF" d="M1353.99,310.66c0,12.81,10.27,23.19,22.95,23.19c12.72,0,22.99-10.39,22.99-23.19
		s-10.27-23.18-22.99-23.19C1364.26,287.47,1353.99,297.86,1353.99,310.66z M1386.15,310.7c-0.04,5.09-4.16,9.23-9.21,9.23
		s-9.17-4.14-9.17-9.27s4.11-9.27,9.21-9.23C1382.07,301.43,1386.15,305.57,1386.15,310.7z"/>
	<path fill="#FFFFFF" d="M970.27,462.95v47.61c0,9.52,0.9,16.29,2.73,20.27s4.89,7.3,9.13,9.97s9.25,3.98,15,3.98
		c4.41,0,8.24-0.69,11.54-2.09c3.3-1.39,6.23-3.53,8.76-6.44c2.53-2.92,4.24-5.91,5.14-9.03c0.9-3.08,1.35-8.66,1.35-16.7v-0.02
		h0.08v-47.56h-15.18v49.74c0,5.34-0.37,8.99-1.1,10.88s-2.07,3.45-3.99,4.68c-1.96,1.23-4.24,1.85-6.89,1.85
		c-2.53,0-4.65-0.53-6.44-1.64s-3.06-2.58-3.83-4.43s-1.14-5.01-1.14-9.44v-51.63H970.27z"/>
	<polygon fill="#FFFFFF" points="1141.48,542.74 1141.48,477.9 1155.91,477.9 1155.91,462.92 1112.09,462.92 1112.09,477.9 
		1126.15,477.9 1126.15,542.74 	"/>
	<path fill="#FFFFFF" d="M1184.7,369.92c11.13,0,20.14-9.07,20.14-20.27v-17.36h13.78c13.04,0,23.6-9.07,23.6-20.27
		c0-11.2-10.56-20.27-23.6-20.27h-13.78v-17.36c0-11.2-9.01-20.27-20.14-20.27s-20.14,9.07-20.14,20.27v17.36h-13.78
		c-13.04,0-23.6,9.07-23.6,20.27c0,11.2,10.56,20.27,23.6,20.27h13.78v17.36C1164.56,360.85,1173.57,369.92,1184.7,369.92z"/>
	<rect x="1242.09" y="462.92" fill="#FFFFFF" width="15" height="79.82"/>
	<path fill="#FFFFFF" d="M1037.87,189.89h-96.04c-8.44,0-15.45,2.79-20.91,8.29c-5.5,5.5-8.23,12.51-8.23,21.05
		c0,8.78,2.77,16.04,8.23,21.83c5.46,5.79,12.43,8.66,20.91,8.66h18.3v151.64c0,8.49,2.77,15.55,8.23,21.05
		c5.46,5.54,12.43,8.29,20.91,8.29c8.73,0,15.94-2.79,21.69-8.29s8.6-12.51,8.6-21.05V249.72h18.3c8.48,0,15.45-2.75,20.92-8.29
		c5.5-5.5,8.23-12.51,8.23-21.05c0-8.78-2.77-16.04-8.23-21.83C1053.32,192.76,1046.35,189.89,1037.87,189.89z"/>
	<path fill="#FFFFFF" d="M1411.42,255.01c-12.72,0-22.99,10.39-22.99,23.19c0,12.81,10.31,23.19,22.99,23.19
		c12.68,0,23-10.38,22.99-23.19C1434.41,265.39,1424.1,255.01,1411.42,255.01z M1411.42,287.47c-5.05,0-9.17-4.14-9.17-9.27
		s4.16-9.23,9.21-9.23c5.06,0,9.18,4.19,9.13,9.27C1420.59,283.33,1416.47,287.47,1411.42,287.47z"/>
	<path fill="#FFFFFF" d="M1411.43,319.94c-12.72,0-22.99,10.39-22.99,23.19c0,12.81,10.31,23.19,22.99,23.19
		c12.72,0,22.99-10.39,22.99-23.19C1434.42,330.32,1424.1,319.94,1411.43,319.94z M1411.42,352.39c-5.05,0-9.17-4.14-9.17-9.27
		s4.16-9.23,9.21-9.23c5.06,0,9.18,4.15,9.13,9.27C1420.59,348.29,1416.47,352.39,1411.42,352.39z"/>
	<path fill="#FFFFFF" d="M1704.68,528c-1.75,1.56-3.95,2.3-6.52,2.3c-4.94,0-9.34-3.53-13.17-10.59l-12.68,7.72
		c2.97,5.95,6.56,10.34,10.76,13.13s9.13,4.19,14.76,4.19c7.26,0,13.13-2.13,17.61-6.4c4.49-4.27,6.77-9.69,6.75-16.21
		c0-3.37-0.66-6.49-1.92-9.32c-1.3-2.88-3.46-5.83-6.52-8.95c-1.23-1.23-4.73-4.31-10.48-9.15c-6.16-5.25-9.87-8.66-11.09-10.26
		c-0.9-1.23-1.35-2.47-1.35-3.82c0-1.35,0.62-2.54,1.88-3.61s2.89-1.6,4.85-1.6c4.07,0,8.07,2.75,11.98,8.25l11.17-9.93
		c-4.16-4.89-8.03-8.25-11.62-10.1c-3.46-1.81-7.34-2.75-11.29-2.75c-6.15,0-11.33,1.97-15.53,5.95c-4.2,3.94-6.28,8.7-6.28,14.24
		c0,3.81,1.26,7.67,3.79,11.53c2.52,3.86,8.11,9.32,16.75,16.42c4.52,3.73,7.45,6.48,8.8,8.29s2,3.61,2,5.42
		C1707.33,524.72,1706.43,526.48,1704.68,528z"/>
	<polygon fill="#FFFFFF" points="844.59,462.92 844.59,542.74 881.69,542.74 881.68,528.25 859.67,528.25 859.67,462.92 	"/>
	<path fill="#0E7AFF" d="M694.09,483.53c-5.01,5.13-7.5,11.66-7.5,19.58c0,8.82,3.14,15.8,9.46,20.93
		c4.89,4.02,10.52,6.03,16.84,6.03c7.17,0,13.25-2.59,18.3-7.8c5.05-5.21,7.54-11.61,7.54-19.25c0-7.59-2.53-14.04-7.62-19.29
		c-5.1-5.3-11.25-7.92-18.51-7.92C705.26,475.81,699.11,478.4,694.09,483.53z"/>
	<path fill="#0E7AFF" d="M1367.77,310.66c0,5.13,4.12,9.27,9.17,9.27s9.17-4.14,9.21-9.23c0-5.13-4.08-9.27-9.17-9.27
		C1371.88,301.39,1367.77,305.53,1367.77,310.66z"/>
	<path fill="#0E7AFF" d="M1411.46,268.97c-5.05,0-9.21,4.1-9.21,9.23s4.12,9.27,9.17,9.27s9.17-4.14,9.17-9.23
		C1420.64,273.16,1416.52,268.97,1411.46,268.97z"/>
	<path fill="#0E7AFF" d="M1411.46,333.89c-5.05,0-9.21,4.1-9.21,9.23s4.12,9.27,9.17,9.27s9.17-4.1,9.17-9.23
		C1420.64,338.04,1416.52,333.89,1411.46,333.89z"/>
	<polygon fill="#0E7AFF" points="629.69,321.21 649.5,321.21 639.43,293.39 	"/>
	<path fill="#0E7AFF" d="M1370.86,483.53c-5.01,5.13-7.5,11.66-7.5,19.58c0,8.82,3.14,15.8,9.46,20.93
		c4.89,4.02,10.52,6.03,16.84,6.03c7.17,0,13.25-2.59,18.3-7.8c5.05-5.21,7.58-11.61,7.58-19.25c0-7.59-2.53-14.04-7.62-19.29
		c-5.1-5.3-11.25-7.92-18.55-7.92C1382.03,475.81,1375.84,478.4,1370.86,483.53z"/>
	<path fill="#0E7AFF" d="M0,0v693.56h1920V0H0z M430.1,406.4c0,0-160.61-78.34-213.65-192.64c0,0,101.1,126.24,256.65,182.79
		l4.32,21.79c0.01,0.05-20.57,10.11-53.1,17.86c-11.74-8.21-46.59-14.16-87.77-14.16c-37.99,0-70.6,5.09-84.63,12.31
		c-19.44-5.79-38.24-15.31-56.25-29.67c0,0,7.87-54.66,32.24-108.92c0,0,47.33,47.65,98.94,81.46c0,0-44.43-20.03-89.6-49.29
		c0,0-13.62,26.51-17.94,63.12C219.31,391.05,319.39,436.03,430.1,406.4z M337.7,173.44c-41.58,33.24-61.68,76.58-61.68,76.58
		l-15.78-16.13c25.76-42.94,78.84-89.72,78.84-89.72c106.11,86.72,129.06,221.41,129.06,221.41
		c-96.77-40.3-133.34-81.46-133.34-81.46c55.19,37.18,99.67,42.23,99.67,42.23C405.08,231.26,337.7,173.44,337.7,173.44z
		 M251.23,505.81c0-19.29,24.91-8.74,24.91-8.74c11.58-25.77,28.45-8.7,28.45-8.7l19.36-44.53c3.06-5.91,22.22-5.91,25.27,0
		l19.36,44.53c0,0,16.84-17.07,28.45,8.7c0,0,24.91-10.55,24.91,8.74c0,0-21.32,4.1-21.32,17.44c0,0,3.26-11.61,24.87-11.61
		c12.11,0,18.43,4.23,21.69,9.11c3.63,5.57-0.4,11.2-0.4,11.2c0,6.4-49.37,17.44-110.23,17.44c-60.86,0-110.23-11.04-110.23-17.44
		c0,0-4.04-5.62-0.37-11.2c3.26-4.92,9.58-9.11,21.69-9.11c21.65,0,24.91,11.61,24.91,11.61
		C272.55,509.91,251.23,505.81,251.23,505.81z M336.55,433.62c-31.76,0-62.86,3.24-62.86,7.22c0,3.12,18.71,5.75,41.95,6.77
		l-1.92,5.7c-33.35-1.6-57.68-6.57-57.68-12.48c0-7.18,36.04-13.01,80.51-13.01c44.47,0,80.51,5.83,80.51,13.01
		c0,5.91-24.34,10.92-57.68,12.48l-1.92-5.7c23.24-1.03,41.95-3.65,41.95-6.77C399.41,436.86,368.31,433.62,336.55,433.62z
		 M739.4,417.45c-3.1,4.64-7.54,8.21-13.25,10.71c-3.75,1.76-7.99,2.63-12.72,2.63c-5.75,0-11.01-1.52-15.9-4.51
		c-4.85-3-8.4-7.39-10.64-13.17l-16.84-40.63h-61.68l-16.8,40.54c-2.49,5.79-6.03,10.18-10.64,13.17c-4.61,3-9.78,4.51-15.49,4.51
		c-3.99,0-8.36-0.98-13.09-3c-5.75-2.5-10.15-6.07-13.25-10.71c-3.1-4.64-4.69-9.85-4.69-15.64c0-4.27,0.86-8.29,2.61-12.02
		l74.39-181.35c2.24-5.5,6.03-9.77,11.41-12.8c5.34-3,10.88-4.64,16.63-4.88c6.24,0,11.78,1.31,16.63,3.94s8.64,7.1,11.41,13.38
		l73.99,181.76c1.75,3.78,2.61,7.92,2.61,12.43C744.09,407.6,742.54,412.77,739.4,417.45z M753.77,503.1
		c0.04,11.65-3.95,21.5-11.94,29.54c-7.95,8.08-17.65,12.11-28.98,12.11c-11.9,0-21.81-4.15-29.68-12.43
		c-7.87-8.29-11.82-18.14-11.82-29.51c0-7.63,1.83-14.65,5.5-21.05c3.67-6.4,8.72-11.49,15.12-15.23c6.4-3.73,13.33-5.62,20.75-5.62
		c11.21,0,20.87,4.1,28.94,12.27S753.77,491.32,753.77,503.1z M566.66,517.33c-1.35-1.81-4.28-4.56-8.8-8.29
		c-8.64-7.1-14.23-12.56-16.75-16.42c-2.53-3.86-3.79-7.72-3.79-11.53c0-5.54,2.08-10.3,6.28-14.24c4.2-3.98,9.38-5.95,15.53-5.95
		c3.95,0,7.83,0.94,11.29,2.75c3.59,1.85,7.46,5.21,11.62,10.1l-11.17,9.93c-3.91-5.5-7.91-8.25-11.98-8.25c-2,0-3.59,0.53-4.85,1.6
		c-1.26,1.07-1.88,2.26-1.88,3.61c0,1.35,0.45,2.59,1.35,3.82c1.22,1.6,4.93,5.01,11.09,10.26c5.75,4.84,9.25,7.92,10.48,9.15
		c3.06,3.12,5.22,6.07,6.52,8.95c1.26,2.83,1.92,5.95,1.92,9.32c0.02,6.52-2.22,11.94-6.75,16.21c-4.48,4.27-10.35,6.4-17.61,6.4
		c-5.67,0-10.56-1.4-14.76-4.19s-7.79-7.18-10.76-13.13l12.68-7.72c3.83,7.06,8.19,10.59,13.17,10.59c2.61,0,4.77-0.74,6.52-2.3
		c1.75-1.52,2.65-3.28,2.65-5.25C568.66,520.94,568.01,519.14,566.66,517.33z M911.65,384.11c2.98,5.25,4.48,10.79,4.48,16.54
		c0.05,4.69-1.09,9.33-3.34,13.51c-2.24,4.27-5.63,7.92-10.11,10.92c-4.97,3.53-10.6,5.25-16.84,5.25
		c-4.65,0.04-9.21-1.15-13.25-3.41c-4.12-2.26-7.54-5.5-10.27-9.77l-36.65-63.98h-8.97v48.18c0,8.54-2.85,15.55-8.6,21.05
		s-12.96,8.29-21.69,8.29c-8.48,0-15.45-2.75-20.91-8.29c-5.46-5.5-8.23-12.56-8.23-21.05V219.64c0-8.54,2.85-15.55,8.6-21.05
		s12.96-8.29,21.69-8.29h42.23c8.97,0,17.9,2.13,26.74,6.4c8.84,4.27,16.84,10.1,23.93,17.48c7.09,7.39,12.88,16.01,17.37,25.77
		c4.48,9.77,6.73,20.19,6.73,31.23c0,6.03-0.82,12.07-2.45,17.89c-1.59,5.79-3.79,11.41-6.52,16.74c-2.73,5.25-5.91,9.97-9.54,14.12
		c-3.63,4.14-7.54,7.35-11.78,9.6L911.65,384.11z M1411.83,427.83c-26.54,0-51-8.82-70.73-23.72c-8.89-6.73-10.03-19.78-3.91-27.54
		c6.89-8.78,18.18-8.58,27.11-2.01c13.78,10.18,30.45,15.64,47.53,15.64c44.47,0,80.51-36.28,80.51-81.05s-36.04-81.05-80.51-81.05
		c-26.09,0-49.24,12.48-63.96,31.85h-99.18c-14.72-19.37-37.91-31.85-63.96-31.85c-44.47,0-80.51,36.28-80.51,81.05
		s36.04,81.05,80.51,81.05c16.63,0.04,32.82-5.13,46.39-14.82c9.05-6.44,19.73-7.26,25.76,0.53c6.81,8.82,6.11,22.69-2.85,29.26
		c-19.44,14.24-43.37,22.65-69.26,22.65c-65.1,0-117.89-53.15-117.89-118.68s52.79-118.68,117.89-118.68
		c31.06,0,59.27,12.07,80.35,31.85h66.45c21.03-19.74,49.28-31.85,80.35-31.85c65.1,0,117.89,53.15,117.89,118.68
		C1529.72,374.69,1476.93,427.83,1411.83,427.83z M1535.96,462.92l33.92,52.53v-52.53H1585v79.82h-0.04v0h-14.51l-33.88-52.37v52.37
		h-15.08v-79.82H1535.96z M1430.58,503.1c0,11.65-3.95,21.5-11.94,29.54c-7.95,8.08-17.65,12.11-28.98,12.11
		c-11.9,0-21.81-4.15-29.68-12.43c-7.87-8.29-11.82-18.14-11.82-29.51c0-7.63,1.83-14.65,5.5-21.05c3.67-6.4,8.72-11.49,15.12-15.23
		c6.44-3.73,13.33-5.62,20.75-5.62c11.21,0,20.87,4.1,28.94,12.27S1430.58,491.32,1430.58,503.1z M1422.92,310.66
		c0-12.8,10.27-23.19,22.99-23.19c12.68,0,22.99,10.38,22.99,23.19c0,12.8-10.27,23.19-22.99,23.19
		C1433.19,333.85,1422.92,323.47,1422.92,310.66z M1434.42,343.13c0,12.8-10.27,23.19-22.99,23.19c-12.68,0-22.99-10.38-22.99-23.19
		c0-12.8,10.27-23.19,22.99-23.19C1424.1,319.94,1434.42,330.32,1434.42,343.13z M1411.42,301.39c-12.68,0-22.99-10.38-22.99-23.19
		c0-12.8,10.27-23.19,22.99-23.19c12.68,0,22.99,10.38,22.99,23.19C1434.42,291.01,1424.1,301.39,1411.42,301.39z M1399.93,310.66
		c0,12.8-10.27,23.19-22.99,23.19c-12.68,0-22.95-10.38-22.95-23.19c0-12.8,10.27-23.19,22.95-23.19
		C1389.66,287.48,1399.93,297.86,1399.93,310.66z M1150.78,332.29c-13.04,0-23.6-9.07-23.6-20.27c0-11.2,10.56-20.27,23.6-20.27
		h13.78v-17.36c0-11.2,9.01-20.27,20.14-20.27s20.14,9.07,20.14,20.27v17.36h13.78c13.04,0,23.6,9.07,23.6,20.27
		c0,11.2-10.56,20.27-23.6,20.27h-13.78v17.36c0,11.2-9.01,20.27-20.14,20.27s-20.14-9.07-20.14-20.27v-17.36H1150.78z
		 M1257.09,462.92v79.82h-15v-79.82H1257.09z M1112.09,477.9v-14.98h43.82v14.98h-14.43v64.84h-15.33V477.9H1112.09z
		 M1058.78,241.43c-5.47,5.54-12.44,8.29-20.92,8.29h-18.3v151.64c0,8.54-2.85,15.55-8.6,21.05s-12.96,8.29-21.69,8.29
		c-8.48,0-15.45-2.75-20.91-8.29c-5.46-5.5-8.23-12.56-8.23-21.05V249.72h-18.3c-8.48,0-15.45-2.87-20.91-8.66
		c-5.46-5.79-8.23-13.05-8.23-21.83c0-8.54,2.73-15.55,8.23-21.05c5.46-5.5,12.47-8.29,20.91-8.29h96.04
		c8.48,0,15.45,2.87,20.91,8.66c5.46,5.79,8.23,13.05,8.23,21.83C1067.01,228.92,1064.28,235.93,1058.78,241.43z M986.57,524.02
		c0.77,1.85,2.04,3.32,3.83,4.43s3.91,1.64,6.44,1.64c2.65,0,4.93-0.62,6.89-1.85c1.92-1.23,3.26-2.79,3.99-4.68s1.1-5.54,1.1-10.88
		v-49.74H1024v47.56h-0.08v0.02c0,8.04-0.45,13.62-1.35,16.7c-0.9,3.12-2.61,6.11-5.14,9.03c-2.53,2.91-5.46,5.05-8.76,6.44
		c-3.3,1.4-7.13,2.09-11.54,2.09c-5.75,0-10.76-1.31-15-3.98s-7.3-5.99-9.13-9.97s-2.73-10.75-2.73-20.27v-47.61h15.16v51.63
		C985.43,519.01,985.8,522.17,986.57,524.02z M881.68,528.25l0.01,14.49h-37.1v-79.82h15.08v65.33H881.68z M1705.33,517.33
		c-1.35-1.81-4.28-4.56-8.8-8.29c-8.64-7.1-14.23-12.56-16.75-16.42c-2.53-3.86-3.79-7.72-3.79-11.53c0-5.54,2.08-10.3,6.28-14.24
		c4.2-3.98,9.38-5.95,15.53-5.95c3.95,0,7.83,0.94,11.29,2.75c3.59,1.85,7.46,5.21,11.62,10.1l-11.17,9.93
		c-3.91-5.5-7.91-8.25-11.98-8.25c-1.96,0-3.59,0.53-4.85,1.6s-1.88,2.26-1.88,3.61c0,1.35,0.45,2.59,1.35,3.82
		c1.22,1.6,4.93,5.01,11.09,10.26c5.75,4.84,9.25,7.92,10.48,9.15c3.06,3.12,5.22,6.07,6.52,8.95c1.26,2.83,1.92,5.95,1.92,9.32
		c0.02,6.52-2.26,11.94-6.75,16.21c-4.48,4.27-10.35,6.4-17.61,6.4c-5.63,0-10.56-1.4-14.76-4.19s-7.79-7.18-10.76-13.13l12.68-7.72
		c3.83,7.06,8.23,10.59,13.17,10.59c2.57,0,4.77-0.74,6.52-2.3c1.75-1.52,2.65-3.28,2.65-5.25
		C1707.33,520.94,1706.68,519.14,1705.33,517.33z M1724.37,401.36h-0.04c0,8.54-2.85,15.55-8.6,21.05s-12.96,8.29-21.69,8.29
		c-10.23,0-18.06-3.78-23.56-11.29l-60.53-96.32v78.26c0,8.54-2.85,15.55-8.6,21.05c-5.71,5.5-12.96,8.29-21.69,8.29
		c-8.48,0-15.45-2.75-20.95-8.29c-5.5-5.5-8.23-12.56-8.23-21.05V220.38c0-8.54,2.85-15.55,8.6-21.05
		c5.71-5.5,12.96-8.29,21.69-8.29c5.71,0,10.76,1.31,15.16,3.94c4.32,2.59,7.87,6.28,10.27,10.71l58.7,92.58v-77.89
		c0-8.54,2.85-15.55,8.6-21.05c5.71-5.5,12.96-8.29,21.69-8.29c8.48,0,15.45,2.75,20.95,8.29c5.46,5.54,8.23,12.56,8.23,21.05
		V401.36z"/>
	<polygon fill="#0E7AFF" points="608.37,372.39 608.37,372.48 608.37,372.48 608.41,372.39 	"/>
	<path fill="#0E7AFF" d="M1455.08,310.71c0-5.13-4.08-9.27-9.17-9.27s-9.21,4.1-9.21,9.23s4.12,9.27,9.17,9.27
		C1450.97,319.94,1455.08,315.79,1455.08,310.71z"/>
	<path fill="#0E7AFF" d="M837.3,252.72c-2.24-1.52-4.81-2.42-7.46-2.63h-13.09v43.26h13.09c2.69-0.21,5.26-1.15,7.46-2.63
		c2-1.27,3.79-3.41,5.42-6.4s2.45-7.39,2.45-13.17c0-5.25-0.82-9.36-2.45-12.23C841.09,256.08,839.3,253.99,837.3,252.72z"/>
	<path fill="#0E7AFF" d="M315.23,511.59c-12.72,0-14.23,11.61-14.23,11.61c14.1-4.8,29.8-5.7,35.55-5.83
		c5.75,0.12,21.44,1.03,35.55,5.83c0,0-1.51-11.61-14.23-11.61c0,0,9.5-10.83,32-2.91c0,0.04,3.75-8.7-32-8.7l-14.23-40.71
		l-7.09,33.9l-7.09-33.9l-14.23,40.71c-35.75,0-32,8.7-32,8.7C305.73,500.72,315.23,511.59,315.23,511.59z"/>
</g>
</svg>
